# xmcd
#
# Track frame offsets: 
#        150
#        13281
#        26392
#        40124
#        53870
#        68507
#        80998
#        93499
#        109246
#        123983
#        138896
#        153725
#        167923
#        182093
#        196925
#        212043
#        228429
#        242511
#        256968
#        270983
#        284832
#        298946
#        313225
#
# Disc length: 4372 seconds
#
# Revision: 0
# Processed by: cddbd v1.5.2PL0 Copyright (c) Steve Scherf et al.
# Submitted via: ExactAudioCopy v0.95b3
#
DISCID=57111217
DTITLE=Fiddlin' John Carson - Complete Recorded Works Vol 6
DYEAR=1929
DGENRE=Folk
TTITLE0=Who Bit The Wart Off Grandma's Nose?
TTITLE1=Kate's Snuff Box
TTITLE2=Sunny Tennessee
TTITLE3=Watcha Gonna Do When Your Licker Gives Out?
TTITLE4=The Last Old Dollar Is Gone
TTITLE5=Texas Blues
TTITLE6=Raggedy Riley
TTITLE7=The Raccoon And The Possum
TTITLE8=Hen And The Rooster
TTITLE9=Goin' Where The Climate Suits My Clothes
TTITLE10=The Dominicker Duck
TTITLE11=Silver Threads Among The Gold
TTITLE12=On The Banks Of Old Tennessee
TTITLE13=You Gotta Let My Dog Alone
TTITLE14=John In The Army
TTITLE15=The Old Grey Horse Ain't What He Used To Be
TTITLE16=After The Ball
TTITLE17=My Home In Dixie-Land
TTITLE18=The Old Ship Is Sailing For The Promised Land
TTITLE19=At The Cross
TTITLE20=Take The Train To Charlotte
TTITLE21=Little More Sugar In The Coffee
TTITLE22=Didnt He Ramble
EXTD=
EXTT0=
EXTT1=
EXTT2=
EXTT3=
EXTT4=
EXTT5=
EXTT6=
EXTT7=
EXTT8=
EXTT9=
EXTT10=
EXTT11=
EXTT12=
EXTT13=
EXTT14=
EXTT15=
EXTT16=
EXTT17=
EXTT18=
EXTT19=
EXTT20=
EXTT21=
EXTT22=
PLAYORDER=
